<svg xmlns="http://www.w3.org/2000/svg" font-family="-apple-system, 'Apple SD Gothic Neo', 'Noto Sans KR', sans-serif" viewBox="0 0 900 520"><defs><marker id="bBlue" markerHeight="7" markerWidth="7" orient="auto-start-reverse" refX="9" refY="5" viewBox="0 0 10 10"><path fill="#2563eb" d="M 0 0 L 10 5 L 0 10 z"/></marker><marker id="bPurple" markerHeight="7" markerWidth="7" orient="auto-start-reverse" refX="9" refY="5" viewBox="0 0 10 10"><path fill="#7c3aed" d="M 0 0 L 10 5 L 0 10 z"/></marker><marker id="bGray" markerHeight="7" markerWidth="7" orient="auto-start-reverse" refX="9" refY="5" viewBox="0 0 10 10"><path fill="#6b7280" d="M 0 0 L 10 5 L 0 10 z"/></marker><marker id="bAmber" markerHeight="7" markerWidth="7" orient="auto-start-reverse" refX="9" refY="5" viewBox="0 0 10 10"><path fill="#d97706" d="M 0 0 L 10 5 L 0 10 z"/></marker></defs><rect width="900" height="520" x="0" y="0" fill="#fff"/><text x="450" y="34" fill="#111827" font-size="16" font-weight="700" text-anchor="middle">설계안 1 · 인프라 수준 — 전부 동기 체인</text><rect width="130" height="72" x="40" y="210" fill="#f8fafc" stroke="#94a3b8" stroke-width="1.5" rx="8"/><text x="105" y="252" fill="#334155" font-size="14.5" font-weight="700" text-anchor="middle">사용자</text><rect width="180" height="92" x="250" y="200" fill="#eff6ff" stroke="#3b82f6" stroke-width="1.5" rx="8"/><text x="340" y="230" fill="#1e3a5f" font-size="14.5" font-weight="700" text-anchor="middle">주문 서버</text><text x="340" y="252" fill="#475569" font-size="12" text-anchor="middle">결제 유스케이스</text><text x="340" y="270" fill="#475569" font-size="12" text-anchor="middle">보상 오케스트레이션</text><rect width="170" height="92" x="560" y="70" fill="#f5f3ff" stroke="#7c3aed" stroke-width="1.5" rx="8"/><text x="645" y="104" fill="#4c1d95" font-size="14.5" font-weight="700" text-anchor="middle">포인트 서버</text><text x="645" y="126" fill="#475569" font-size="12" text-anchor="middle">차감 · 복구 API</text><text x="645" y="58" fill="#dc2626" stroke="#fff" stroke-width="5" font-size="11.5" font-weight="600" paint-order="stroke" text-anchor="middle">여기가 죽으면 결제가 막힌다</text><rect width="170" height="76" x="560" y="210" fill="#fffbeb" stroke="#d97706" stroke-width="1.5" rx="8"/><text x="645" y="240" fill="#92400e" font-size="13" font-weight="700" text-anchor="middle">포인트 DB — 원장</text><text x="645" y="262" fill="#475569" font-size="12" text-anchor="middle">차감 · 복구 이력</text><rect width="170" height="80" x="560" y="340" fill="#f8fafc" stroke="#64748b" stroke-width="1.5" rx="8"/><text x="645" y="372" fill="#334155" font-size="14" font-weight="700" text-anchor="middle">외부 PG</text><text x="645" y="394" fill="#475569" font-size="12" text-anchor="middle">취소 API · 수수료</text><rect width="180" height="76" x="250" y="400" fill="#f8fafc" stroke="#64748b" stroke-width="1.5" rx="8"/><text x="340" y="430" fill="#334155" font-size="13.5" font-weight="700" text-anchor="middle">재시도 큐</text><text x="340" y="452" fill="#475569" font-size="12" text-anchor="middle">복구 실패분 재처리</text><line x1="170" x2="244" y1="246" y2="246" stroke="#6b7280" stroke-width="1.6" marker-end="url(#bGray)"/><text x="207" y="236" fill="#6b7280" stroke="#fff" stroke-width="5" font-size="11.5" paint-order="stroke" text-anchor="middle">HTTP</text><line x1="430" x2="554" y1="218" y2="116" stroke="#7c3aed" stroke-width="1.8" marker-end="url(#bPurple)"/><text x="452" y="152" fill="#7c3aed" stroke="#fff" stroke-width="5" font-size="12" font-weight="600" paint-order="stroke">① 차감 — 동기 호출</text><text x="452" y="170" fill="#7c3aed" stroke="#fff" stroke-width="5" font-size="11" paint-order="stroke">③ 승인 실패 시 복구(보상)</text><line x1="645" x2="645" y1="162" y2="204" stroke="#d97706" stroke-width="1.6" marker-end="url(#bAmber)"/><text x="655" y="188" fill="#6b7280" font-size="11">이력 기록</text><line x1="430" x2="554" y1="272" y2="372" stroke="#2563eb" stroke-width="1.8" marker-end="url(#bBlue)"/><text x="446" y="334" fill="#2563eb" stroke="#fff" stroke-width="5" font-size="12" font-weight="600" paint-order="stroke">② 결제 승인 (동기)</text><line x1="340" x2="340" y1="292" y2="394" stroke="#6b7280" stroke-dasharray="5 4" stroke-width="1.6" marker-end="url(#bGray)"/><text x="350" y="348" fill="#6b7280" stroke="#fff" stroke-width="5" font-size="11" paint-order="stroke">복구 실패분 적재</text><path fill="none" stroke="#7c3aed" stroke-dasharray="5 4" stroke-width="1.6" marker-end="url(#bPurple)" d="M 430 424 C 540 410, 590 300, 610 168"/><text x="530" y="310" fill="#7c3aed" stroke="#fff" stroke-width="5" font-size="11" paint-order="stroke">재시도</text><text x="450" y="504" fill="#94a3b8" font-size="11.5" text-anchor="middle">동기 체인은 지연도 전파한다 — 외부 호출을 락 밖으로 빼는 이유 (상세안 2)</text></svg>