<svg xmlns="http://www.w3.org/2000/svg" aria-label="Top Chunk Pinning 도식" font-family="system-ui, -apple-system, 'Segoe UI', 'Apple SD Gothic Neo', sans-serif" role="img" viewBox="0 0 720 300"><rect width="719" height="299" x=".5" y=".5" fill="#fcfcfb" stroke="rgba(11,11,11,0.10)" rx="8"/><text x="24" y="28" fill="#0b0b0b" font-size="15" font-weight="700">Top Chunk Pinning</text><text x="24" y="47" fill="#52514e" font-size="12">glibc는 힙 꼭대기부터 연속된 빈 공간만 OS에 반환한다</text><g fill="#52514e" font-size="12"><rect width="10" height="10" x="580" y="17" fill="#2a78d6" rx="2"/><text x="595" y="26">live</text><rect width="10" height="10" x="636" y="17" fill="#e1e0d9" rx="2"/><text x="651" y="26">free</text></g><text x="56" y="105" fill="#898781" font-size="11">낮은 주소</text><text x="664" y="105" fill="#898781" font-size="11" text-anchor="end">높은 주소 · 힙 꼭대기</text><line x1="664" x2="566" y1="84" y2="84" stroke="#898781" stroke-width="1"/><path fill="#898781" d="M566 84 L574 80 L574 88 Z"/><text x="558" y="88" fill="#898781" font-size="11" text-anchor="end">OS 반환 방향</text><rect width="84" height="56" x="56" y="120" fill="#2a78d6"/><rect width="58" height="56" x="142" y="120" fill="#e1e0d9"/><rect width="82" height="56" x="202" y="120" fill="#2a78d6"/><rect width="302" height="56" x="286" y="120" fill="#e1e0d9"/><rect width="74" height="56" x="590" y="120" fill="#eb6834"/><g font-size="12" text-anchor="middle"><text x="98" y="152" fill="#fff">live</text><text x="171" y="152" fill="#52514e">free</text><text x="243" y="152" fill="#fff">live</text><text x="437" y="152" fill="#52514e">free — 큰 빈 공간</text><text x="627" y="152" fill="#fff">live</text></g><line x1="627" x2="627" y1="176" y2="206" stroke="#c3c2b7" stroke-width="1"/><text x="664" y="222" fill="#52514e" font-size="11" text-anchor="end">꼭대기에 남은 live 할당 하나가 반환을 막는다</text><line x1="437" x2="437" y1="176" y2="240" stroke="#c3c2b7" stroke-width="1"/><text x="437" y="256" fill="#52514e" font-size="11" text-anchor="middle">free지만 꼭대기가 막혀 OS로 못 돌아간다 — RSS에 남는다</text></svg>